#define logo_width 32
#define logo_height 16
static char logo_bits[] = {
   0xff, 0xc0, 0x3f, 0x03, 0x81, 0x21, 0xb0, 0x00, 0x01, 0x13, 0xb0, 0x00,
   0x01, 0x0e, 0x30, 0x03, 0x01, 0x04, 0x30, 0x0c, 0x01, 0x00, 0x30, 0x12,
   0x01, 0x00, 0x30, 0x1e, 0x01, 0x00, 0x30, 0x12, 0x41, 0x40, 0x30, 0x08,
   0xc1, 0x60, 0x30, 0x08, 0xc1, 0x71, 0x30, 0x08, 0xc1, 0x5a, 0x30, 0x38,
   0xc1, 0x4c, 0x30, 0xc0, 0xc1, 0x40, 0x30, 0x20, 0xc1, 0x40, 0x30, 0x20,
   0xff, 0xc0, 0x3f, 0xc0};
